<svg xmlns="http://www.w3.org/2000/svg" xmlns:xlink="http://www.w3.org/1999/xlink" width="300" zoomAndPan="magnify" viewBox="0 0 224.87999 74.999997" height="100" preserveAspectRatio="xMidYMid meet" version="1.0"><defs><g/></defs><g fill="#ff0000" fill-opacity="1"><g transform="translate(11.502377, 59.426681)"><g><path d="M 9.25 -33.984375 L 9.25 0 L 2.609375 0 L 2.609375 -46.921875 L 11.859375 -46.921875 L 19.4375 -18.828125 L 19.4375 -46.921875 L 26.015625 -46.921875 L 26.015625 0 L 18.4375 0 Z M 9.25 -33.984375 "/></g></g></g><g fill="#ff0000" fill-opacity="1"><g transform="translate(40.125543, 59.426681)"><g><path d="M 10.046875 -27.140625 L 20.171875 -27.140625 L 20.171875 -20.4375 L 10.046875 -20.4375 L 10.046875 -6.703125 L 22.796875 -6.703125 L 22.796875 0 L 2.6875 0 L 2.6875 -46.921875 L 22.796875 -46.921875 L 22.796875 -40.21875 L 10.046875 -40.21875 Z M 10.046875 -27.140625 "/></g></g></g><g fill="#ff0000" fill-opacity="1"><g transform="translate(64.793757, 59.426681)"><g><path d="M 0.53125 -46.921875 L 23.328125 -46.921875 L 23.328125 -40.21875 L 15.625 -40.21875 L 15.625 0 L 8.25 0 L 8.25 -40.21875 L 0.53125 -40.21875 Z M 0.53125 -46.921875 "/></g></g></g><g fill="#ff0000" fill-opacity="1"><g transform="translate(88.657568, 59.426681)"><g><path d="M 10.046875 -26.078125 L 19.578125 -26.078125 L 19.578125 -19.375 L 10.046875 -19.375 L 10.046875 0 L 2.6875 0 L 2.6875 -46.921875 L 22.1875 -46.921875 L 22.1875 -40.21875 L 10.046875 -40.21875 Z M 10.046875 -26.078125 "/></g></g></g><g fill="#ff0000" fill-opacity="1"><g transform="translate(111.716985, 59.426681)"><g><path d="M 26.546875 0 L 19.109375 0 L 17.828125 -8.515625 L 8.78125 -8.515625 L 7.5 0 L 0.734375 0 L 8.25 -46.921875 L 19.03125 -46.921875 Z M 9.71875 -14.875 L 16.828125 -14.875 L 13.265625 -38.609375 Z M 9.71875 -14.875 "/></g></g></g><g fill="#ff0000" fill-opacity="1"><g transform="translate(138.999488, 59.426681)"><g><path d="M 2.6875 -46.921875 L 10.046875 -46.921875 L 10.046875 -6.703125 L 22.1875 -6.703125 L 22.1875 0 L 2.6875 0 Z M 2.6875 -46.921875 "/></g></g></g><g fill="#ff0000" fill-opacity="1"><g transform="translate(161.723749, 59.426681)"><g><path d="M 1.75 -35.65625 C 1.75 -39.457031 2.648438 -42.375 4.453125 -44.40625 C 6.265625 -46.4375 8.984375 -47.453125 12.609375 -47.453125 C 16.222656 -47.453125 18.929688 -46.4375 20.734375 -44.40625 C 22.546875 -42.375 23.453125 -39.457031 23.453125 -35.65625 L 23.453125 -34.1875 L 16.484375 -34.1875 L 16.484375 -36.125 C 16.484375 -37.820312 16.160156 -39.015625 15.515625 -39.703125 C 14.867188 -40.398438 13.960938 -40.75 12.796875 -40.75 C 11.640625 -40.75 10.734375 -40.398438 10.078125 -39.703125 C 9.429688 -39.015625 9.109375 -37.820312 9.109375 -36.125 C 9.109375 -34.519531 9.46875 -33.101562 10.1875 -31.875 C 10.90625 -30.644531 11.800781 -29.484375 12.875 -28.390625 C 13.945312 -27.296875 15.097656 -26.195312 16.328125 -25.09375 C 17.554688 -24 18.707031 -22.804688 19.78125 -21.515625 C 20.851562 -20.222656 21.742188 -18.75 22.453125 -17.09375 C 23.171875 -15.4375 23.53125 -13.492188 23.53125 -11.265625 C 23.53125 -7.460938 22.601562 -4.546875 20.75 -2.515625 C 18.894531 -0.484375 16.15625 0.53125 12.53125 0.53125 C 8.914062 0.53125 6.179688 -0.484375 4.328125 -2.515625 C 2.472656 -4.546875 1.546875 -7.460938 1.546875 -11.265625 L 1.546875 -14.140625 L 8.515625 -14.140625 L 8.515625 -10.796875 C 8.515625 -9.097656 8.859375 -7.910156 9.546875 -7.234375 C 10.242188 -6.566406 11.171875 -6.234375 12.328125 -6.234375 C 13.492188 -6.234375 14.421875 -6.566406 15.109375 -7.234375 C 15.804688 -7.910156 16.15625 -9.097656 16.15625 -10.796875 C 16.15625 -12.398438 15.796875 -13.816406 15.078125 -15.046875 C 14.367188 -16.273438 13.476562 -17.4375 12.40625 -18.53125 C 11.332031 -19.625 10.179688 -20.71875 8.953125 -21.8125 C 7.722656 -22.90625 6.570312 -24.097656 5.5 -25.390625 C 4.425781 -26.691406 3.53125 -28.171875 2.8125 -29.828125 C 2.101562 -31.484375 1.75 -33.425781 1.75 -35.65625 Z M 1.75 -35.65625 "/></g></g></g><g fill="#ff0000" fill-opacity="1"><g transform="translate(186.794148, 59.426681)"><g><path d="M 10.046875 -27.140625 L 20.171875 -27.140625 L 20.171875 -20.4375 L 10.046875 -20.4375 L 10.046875 -6.703125 L 22.796875 -6.703125 L 22.796875 0 L 2.6875 0 L 2.6875 -46.921875 L 22.796875 -46.921875 L 22.796875 -40.21875 L 10.046875 -40.21875 Z M 10.046875 -27.140625 "/></g></g></g></svg>